<svg width="375" height="282" viewBox="0 0 375 282" fill="none" xmlns="http://www.w3.org/2000/svg">
<g clip-path="url(#clip0_342_11872)">
<rect width="375" height="281.584" fill="#EF98A0"/>
<g opacity="0.2">
<path d="M127.155 42.9119L184.32 125.548L203.795 150.881L219.908 131.374L256.897 82.6045L287.861 37.764C305.936 12.4312 313.361 -3.8252 313.361 -14.9337C313.361 -22.1136 309.298 -27.3969 298.51 -32.5448C286.46 -39.0473 283.098 -42.2986 283.098 -50.6977C283.098 -59.7742 291.224 -66.9541 303.273 -66.9541L348.389 -66.2768L387.339 -66.9541C396.727 -66.9541 403.452 -59.7742 403.452 -50.6977C403.452 -44.1952 400.79 -39.5892 392.663 -33.764C384.537 -28.6162 379.913 -25.3649 379.213 -24.6875C375.85 -21.4363 371.927 -16.2884 367.163 -8.43116C317.985 70.9541 305.235 90.4618 258.859 148.985C251.433 158.061 240.084 171.744 225.232 190.574V257.496V282.829L225.933 306.942C225.933 321.302 229.295 325.773 242.045 330.379L249.471 333.63C256.196 336.204 260.96 342.029 260.96 348.532C260.96 358.827 252.133 366.685 240.084 366.685L183.619 366.007L122.392 366.685C110.202 366.685 100.815 358.963 100.815 348.532C100.815 342.029 105.438 336.204 112.864 333.63L119.589 330.379C132.339 325.095 135.002 321.844 135.002 306.942L135.702 282.829V257.496V193.148C84.5619 129.342 65.7873 102.112 32.1609 48.7371C22.073 33.158 11.9851 16.2243 1.89723 -1.92861C-7.49013 -18.7269 -10.8529 -21.4363 -27.6661 -29.8354C-40.416 -36.3379 -45.1797 -41.6213 -45.1797 -50.6977C-45.1797 -59.7742 -37.0534 -66.9541 -26.9654 -66.9541L36.2241 -66.2768L103.477 -66.9541C115.526 -66.9541 123.653 -59.7742 123.653 -49.343C123.653 -42.8405 120.29 -39.0473 110.902 -34.4414C98.1525 -28.6162 95.4904 -26.0422 95.4904 -19.5397C95.4904 -8.43116 105.578 11.7538 127.155 42.9119Z" stroke="black"/>
<path d="M410.736 164.157C401.336 155.623 395.303 153.049 381.132 153.049V152.913H269.872V268.063C269.872 324.554 274.643 328.482 341.286 328.482C414.103 328.482 441.041 320.625 469.944 292.041C482.01 280.255 487.341 277.681 495.479 277.681C506.282 277.681 513.016 284.725 513.016 295.834C513.016 301.795 511.614 309.516 509.649 319.948L504.318 348.532C501.652 362.756 495.619 366.685 475.415 366.685H167.03C154.824 366.685 145.424 358.963 145.424 348.532C145.424 342.029 150.054 336.204 157.49 333.63L164.224 330.379C177.693 325.095 179.658 321.844 180.359 306.943V282.829C180.359 270.501 181.061 262.102 181.061 257.496V42.9119C181.061 37.7641 180.359 29.2295 180.359 16.9017V-7.21192C179.658 -21.5717 177.693 -25.5003 164.224 -30.6482L157.49 -33.2221C150.054 -36.4734 145.985 -42.2986 145.985 -48.8011C145.985 -59.0968 154.824 -66.9541 166.89 -66.9541H457.878C485.517 -66.9541 492.252 -53.949 492.252 -1.25125C492.252 9.17992 484.816 16.3598 474.714 16.3598C464.612 16.3598 462.507 15.0051 449.74 -0.573898C431.641 -21.9781 405.264 -29.158 342.689 -29.158C279.413 -29.158 270.012 -23.1974 270.012 14.4632V112.679H379.729C392.497 112.679 402.598 109.428 410.035 103.602L420.136 95.2032C422.802 93.3067 426.169 91.952 430.238 91.952C443.707 91.952 447.776 99.6737 447.776 127.039V131.645V156.3C447.215 166.054 439.077 173.911 428.975 173.911C422.241 173.911 419.435 172.015 410.736 164.157Z" stroke="black"/>
<path d="M258.276 320.518C258.276 296.555 205.154 221.146 141.94 155.484L80.8281 204.899V257.564L81.5289 282.881V306.98C82.2297 322.008 83.4912 324.58 97.6478 330.401L103.675 333.651C111.664 336.9 115.729 342.045 115.729 348.543C115.729 358.832 106.198 366.685 94.1437 366.685L38.9189 366.008L-23.0337 366.685C-35.228 366.685 -44.619 358.968 -44.619 348.543C-44.619 342.045 -39.8534 336.223 -33.1255 333.651L-24.996 330.401C-12.241 326.475 -9.57794 321.331 -8.87712 306.98V282.881L-8.17624 257.564V43.1141L-8.87712 17.1201V-6.97846C-9.57794 -21.3293 -12.9418 -26.4739 -24.996 -30.4001L-33.6862 -32.9724C-40.4141 -35.5447 -45.1797 -42.0432 -45.1797 -48.5417C-45.1797 -58.831 -36.3493 -66.6833 -23.5943 -66.6833L36.2559 -66.0064L93.4429 -66.6833C105.637 -66.6833 115.028 -58.9664 115.028 -48.5417C115.028 -42.0432 110.963 -36.8986 103.535 -32.9724L97.5076 -30.4001L89.3781 -27.1508C83.9117 -24.5785 81.2486 -18.08 81.2486 -6.97846V17.1201L80.5478 43.1141V153.318C132.268 113.65 151.191 97.4035 184.129 67.4834C202.351 50.0187 220.432 32.4186 237.952 13.6001C252.109 -1.29228 258.136 -11.04 258.136 -18.2154C258.136 -25.3908 254.772 -29.317 242.718 -34.4617C233.327 -39.0648 229.963 -43.5325 229.963 -50.7079C229.963 -61.8095 237.392 -66.9541 254.912 -66.9541C260.939 -66.9541 267.667 -66.2772 274.395 -65.6003L274.395 -65.6002C287.15 -64.2464 301.307 -64.2464 316.725 -64.9233C323.453 -65.6002 330.881 -65.6002 337.609 -65.6002C360.456 -65.6002 368.586 -60.9972 368.586 -48.6771C368.586 -40.1478 363.82 -35.0032 350.364 -28.5047C328.078 -18.08 322.051 -12.8 295.139 18.3386C273.554 44.3325 258.837 59.3603 207.677 106.745C237.252 137.342 248.044 150.339 268.929 175.656C300.606 215.189 330.881 259.46 351.065 297.774C362.558 319.3 367.885 325.121 381.341 331.62C396.899 338.118 399.562 341.368 399.562 350.438C399.562 360.186 391.573 366.685 380.079 366.685L320.93 366.008L262.341 366.685C245.521 366.685 235.429 360.186 235.429 349.762C235.429 342.045 238.093 338.795 248.885 331.62C255.613 328.371 258.276 325.121 258.276 320.518Z" stroke="black"/>
<path d="M229.85 305.848C210.862 264.832 196.093 228.418 178.511 174.542C175.135 164.118 169.65 148.551 163.039 127.028C139.972 214.746 129.282 247.911 107.621 298.538C100.167 316.678 92.0087 333.599 83.2881 349.843C71.7545 370.689 61.6274 377.187 42.0764 377.187C20.5564 377.187 11.1325 371.366 -0.401138 349.301C-34.1581 283.648 -70.7282 166.69 -91.5451 55.1474L-103.079 -7.25699C-105.751 -21.4706 -107.72 -24.0426 -119.254 -31.8939C-128.678 -37.7147 -132.053 -42.8587 -132.053 -50.0332C-132.053 -59.7796 -124.036 -66.9541 -113.206 -66.9541L-54.4123 -66.2773H3.11522C15.2115 -66.2773 22.6662 -59.7796 22.6662 -50.0332C22.6662 -42.1818 19.2905 -38.2562 7.1942 -32.4354C-7.01188 -25.2609 -10.3876 -20.7938 -10.3876 -6.44481C-10.3876 20.7641 2.41196 87.771 19.9937 152.071C32.7933 201.48 40.9512 224.898 63.8779 285.949C88.211 230.042 96.2283 207.301 111.138 154.643C119.296 126.757 125.344 102.661 128.719 83.1685C133.502 55.8243 136.877 18.8689 136.877 -1.30083C136.877 -19.4401 132.798 -27.2914 119.999 -33.7891C106.496 -41.6404 105.09 -42.8587 105.09 -50.71C105.09 -60.4565 112.544 -66.9541 124.64 -66.9541L183.997 -66.2773L235.335 -66.9541C246.728 -66.9541 254.183 -60.4565 254.183 -50.71C254.183 -43.5355 250.807 -39.6099 241.383 -34.4659C225.208 -25.3963 222.536 -20.7938 222.536 -5.90332C222.536 18.0567 238.711 85.6052 262.341 158.433C281.189 218.265 289.347 237.081 315.649 285.814C341.951 221.379 350.672 196.065 365.581 138.263C382.46 73.9635 391.18 25.2312 391.18 -0.0825348C391.18 -15.6498 385.132 -24.0426 370.223 -31.2171C352.641 -38.933 349.969 -41.6404 349.969 -50.0332C349.969 -59.1028 358.126 -66.9541 368.254 -66.9541L410.731 -66.2773L451.943 -66.9541C462.07 -66.9541 470.228 -59.7796 470.228 -51.3868C470.228 -45.566 468.118 -41.6404 459.398 -34.4659C445.895 -23.3657 441.816 -16.1913 439.143 -1.30083L430.423 55.8243C426.344 77.8892 420.296 106.452 410.872 142.189C397.369 194.17 384.429 235.728 372.333 268.216C362.909 291.635 352.782 316.948 341.248 342.939C328.448 370.825 319.587 377.322 296.661 377.322C267.686 377.322 259.528 369.471 229.85 305.848Z" stroke="black"/>
</g>
</g>
<defs>
<clipPath id="clip0_342_11872">
<rect width="375" height="281.584" fill="white"/>
</clipPath>
</defs>
</svg>
