<svg width="158" height="32" viewBox="0 0 158 32" fill="none" xmlns="http://www.w3.org/2000/svg">
<path d="M142.827 13.8521L138.868 7.90989C137.374 5.66941 136.676 4.21796 136.676 3.41918C136.676 2.9516 136.86 2.76652 137.743 2.34764C138.393 2.01644 138.626 1.74368 138.626 1.2761C138.626 0.526028 138.063 0.00974184 137.229 0.00974184L132.572 0.0584481L128.197 0.00974184C127.498 0.00974184 126.936 0.526028 126.936 1.17869C126.936 1.83136 127.265 2.21126 128.148 2.67884C129.312 3.2828 129.545 3.47763 130.195 4.68554C130.894 5.99087 131.592 7.20852 132.291 8.32877C134.619 12.1668 135.919 14.1248 139.46 18.7129V23.34V25.1616L139.412 26.8956C139.412 27.9671 139.227 28.2009 138.345 28.5808L137.879 28.8146C137.365 28.9997 137.045 29.4186 137.045 29.8861C137.045 30.6362 137.695 31.1915 138.539 31.1915L142.778 31.1428L146.688 31.1915C147.522 31.1915 148.133 30.6265 148.133 29.8861C148.133 29.4186 147.804 28.9997 147.338 28.8146L146.824 28.5808C145.941 28.2496 145.708 27.9282 145.708 26.8956L145.66 25.1616V23.34V18.5279C146.688 17.1738 147.474 16.19 147.988 15.5373C151.199 11.3291 152.082 9.92633 155.487 4.21796C155.817 3.65297 156.089 3.2828 156.322 3.04901C156.37 3.0003 156.69 2.76652 157.253 2.39635C157.816 1.97747 158 1.64627 158 1.17869C158 0.526028 157.534 0.00974184 156.884 0.00974184L154.187 0.0584481L151.063 0.00974184C150.229 0.00974184 149.666 0.526028 149.666 1.17869C149.666 1.78265 149.899 2.01644 150.734 2.48402C151.481 2.85419 151.762 3.23409 151.762 3.75038C151.762 4.54916 151.248 5.71811 149.996 7.53973L147.852 10.7641L145.291 14.2709L144.175 15.6737L142.827 13.8521ZM113.344 15.8198C114.323 15.8198 114.741 16.0049 115.391 16.6186C115.992 17.1836 116.186 17.3199 116.652 17.3199C117.35 17.3199 117.913 16.7549 117.952 16.0536V14.2807V13.9495C117.952 11.9817 117.671 11.4265 116.739 11.4265C116.458 11.4265 116.225 11.5239 116.041 11.6603L115.342 12.2642C114.828 12.6831 114.129 12.9169 113.247 12.9169H105.66V5.85449C105.66 3.14642 106.31 2.71781 110.685 2.71781C115.012 2.71781 116.836 3.23409 118.088 4.77321C118.971 5.89346 119.116 5.99087 119.815 5.99087C120.513 5.99087 121.027 5.47458 121.027 4.72451C121.027 0.93516 120.562 0 118.65 0H98.5293C97.695 0 97.0837 0.564993 97.0837 1.30533C97.0837 1.77291 97.3651 2.19178 97.8793 2.42557L98.345 2.61065C99.2763 2.98082 99.4121 3.26332 99.4606 4.29589C99.4606 4.89985 99.4606 5.46484 99.4606 6.02983C99.4606 6.91629 99.5091 7.52999 99.5091 7.90015V23.3303C99.5091 23.6615 99.4606 24.2655 99.4606 25.1519C99.4606 25.6682 99.4606 26.2721 99.4606 26.8858C99.4121 27.9574 99.2763 28.1912 98.345 28.5711L97.8793 28.8049C97.3651 28.99 97.0449 29.4088 97.0449 29.8764C97.0449 30.6265 97.695 31.1817 98.539 31.1817H119.863C121.26 31.1817 121.677 30.8992 121.862 29.8764L122.23 27.821C122.366 27.0709 122.463 26.5157 122.463 26.0871C122.463 25.2883 121.997 24.7817 121.25 24.7817C120.688 24.7817 120.319 24.9668 119.485 25.8143C117.486 27.8697 115.623 28.4347 110.588 28.4347C105.98 28.4347 105.65 28.1522 105.65 24.0901V15.81H113.344V15.8198ZM73.994 16.0049C78.3694 20.7294 82.0463 26.1553 82.0463 27.8795C82.0463 28.2107 81.862 28.4444 81.3963 28.6782C80.6493 29.1945 80.4649 29.4283 80.4649 29.9836C80.4649 30.7336 81.1635 31.2012 82.3277 31.2012L86.3829 31.1525L90.477 31.2012C91.2725 31.2012 91.8255 30.7336 91.8255 30.0323C91.8255 29.3796 91.6412 29.1458 90.5643 28.6782C89.6329 28.2107 89.2643 27.7918 88.4687 26.2429C87.0717 23.4862 84.9762 20.3008 82.7836 17.4563C81.3381 15.6347 80.5911 14.6995 78.544 12.498C82.0851 9.08858 83.1038 8.00731 84.5978 6.13699C86.4605 3.8965 86.8777 3.51659 88.4202 2.76652C89.3516 2.29894 89.6814 1.92877 89.6814 1.31507C89.6814 0.428615 89.1188 0.0974125 87.5374 0.0974125C87.0717 0.0974125 86.5575 0.0974125 86.0919 0.146119C85.0247 0.194825 84.0448 0.194825 83.162 0.0974125C82.6963 0.0487062 82.2306 0 81.8135 0C80.6008 0 80.0866 0.370167 80.0866 1.16895C80.0866 1.68524 80.3194 2.0067 80.9694 2.3379C81.8038 2.70807 82.0366 2.99056 82.0366 3.50685C82.0366 4.02314 81.6194 4.72451 80.6396 5.79604C79.4269 7.15008 78.1754 8.41644 76.9142 9.67306C74.6343 11.8259 73.3246 12.9948 69.7447 15.849V7.91963L69.7932 6.04932V4.31537C69.7932 3.51659 69.9775 3.04901 70.3559 2.86393L70.9186 2.63014L71.3357 2.44505C71.8499 2.16256 72.1313 1.79239 72.1313 1.32481C72.1313 0.574734 71.4813 0.0194829 70.6372 0.0194829L66.679 0.0681884L62.5364 0.0194829C61.6536 0.0194829 61.0424 0.584476 61.0424 1.32481C61.0424 1.79239 61.3722 2.25997 61.8379 2.44505L62.4394 2.63014C63.2737 2.91263 63.5066 3.2828 63.5551 4.31537V6.04932L63.6036 7.91963V23.3498L63.5551 25.1714V26.9053C63.5066 27.9379 63.3222 28.3081 62.4394 28.5906L61.8767 28.8244C61.411 29.0094 61.0812 29.4283 61.0812 29.8959C61.0812 30.646 61.7312 31.2012 62.5752 31.2012L66.8633 31.1525L70.6857 31.2012C71.5201 31.2012 72.1798 30.6362 72.1798 29.8959C72.1798 29.4283 71.8984 29.0581 71.3455 28.8244L70.9283 28.5906C69.9484 28.1717 69.8611 27.9866 69.8126 26.9053V25.1714L69.7641 23.3498V19.5604L73.994 16.0049ZM21.4211 17.4076C22.6338 21.2846 23.6525 23.905 24.9622 26.8566C27.0092 31.435 27.5719 32 29.5704 32C31.1518 32 31.763 31.5324 32.6458 29.5257C33.4414 27.6554 34.1399 25.8338 34.7899 24.1486C35.6242 21.8107 36.5168 18.8201 37.4481 15.0795C38.0981 12.5078 38.5153 10.4524 38.7966 8.86454L39.3981 4.75373C39.5825 3.68219 39.8638 3.16591 40.7952 2.36712C41.3967 1.85084 41.5422 1.56834 41.5422 1.14947C41.5422 0.54551 40.9795 0.029224 40.281 0.029224L37.4384 0.0779303L34.5085 0.029224C33.81 0.029224 33.2473 0.594216 33.2473 1.24688C33.2473 1.85084 33.4317 2.04566 34.6444 2.60091C35.6727 3.1172 36.0899 3.72116 36.0899 4.8414C36.0899 6.66301 35.4884 10.1699 34.3242 14.797C33.2958 18.9565 32.6943 20.7781 30.8801 25.4149C29.0659 21.9081 28.5033 20.554 27.2032 16.2484C25.5734 11.0076 24.4577 6.14673 24.4577 4.42253C24.4577 3.35099 24.642 3.01979 25.7577 2.36712C26.4077 1.99696 26.6406 1.71446 26.6406 1.19817C26.6406 0.496804 26.1264 0.029224 25.3405 0.029224L21.7995 0.0779303L17.7054 0.029224C16.8711 0.029224 16.3569 0.496804 16.3569 1.19817C16.3569 1.76317 16.4539 1.85084 17.3852 2.41583C18.2681 2.88341 18.5494 3.4484 18.5494 4.75373C18.5494 6.20517 18.3166 8.86454 17.9867 10.8323C17.7539 12.235 17.3367 13.969 16.774 15.9756C15.7457 19.765 15.1927 21.4015 13.5143 25.4247C11.9329 21.0314 11.3703 19.3461 10.4874 15.7906C9.27471 11.1635 8.39187 6.34155 8.39187 4.38356C8.39187 3.35099 8.62471 3.02953 9.60457 2.51324C10.4389 2.09437 10.6717 1.81187 10.6717 1.24688C10.6717 0.54551 10.1576 0.0779303 9.32322 0.0779303H5.35527L1.30001 0.029224C0.55299 0.029224 0 0.54551 0 1.24688C0 1.76317 0.232838 2.13333 0.882844 2.55221C1.67837 3.1172 1.8142 3.30228 1.99853 4.32512L2.79406 8.81583C4.22989 16.8426 6.7523 25.2591 9.08068 29.9836C9.87621 31.5714 10.5262 31.9903 12.0106 31.9903C13.3591 31.9903 14.0576 31.5227 14.8531 30.0225C15.4546 28.8536 16.0173 27.6359 16.5315 26.3306C18.0255 22.6874 18.7629 20.3008 20.3539 13.9884C20.8099 15.5373 21.1883 16.6575 21.4211 17.4076Z" fill="#9C404D"/>
</svg>
